<svg width="242" height="237" viewBox="0 0 242 237" fill="none" xmlns="http://www.w3.org/2000/svg">
<g clip-path="url(#clip0_4_16)">
<path fill-rule="evenodd" clip-rule="evenodd" d="M124.423 12.4193C143.159 9.01883 163.206 -5.06817 179.941 3.99137C196.575 12.9959 194.831 37.6351 202.701 54.7947C209.739 70.1409 222.71 83.0112 223.901 99.8431C225.122 117.089 214.735 132.284 209.348 148.717C202.54 169.487 204.13 194.779 187.947 209.517C171.51 224.487 146.458 229.241 124.423 226.062C103.161 222.996 87.6603 205.741 70.6941 192.604C55.7606 181.042 41.3454 169.377 30.9097 153.659C20.0128 137.246 9.96718 119.506 9.10727 99.8431C8.23207 79.8308 12.6081 58.1106 26.0811 43.2481C39.1311 28.8522 60.8983 28.0481 79.4666 22.2272C94.3537 17.5603 109.069 15.206 124.423 12.4193Z" fill="#E7E7EB"/>
<path d="M106.834 182.218C106.834 182.218 115.991 132.508 67.7018 105.897C19.4126 79.2862 17.1429 79.5983 7.59467 76.5548C2.11615 74.6819 -3.5189 78.5838 2.82053 86.5437C9.15996 94.5035 5.55979 96.5325 18.2386 100.044C30.9175 103.556 32.8741 119.007 39.2135 122.831C45.553 126.655 51.1098 127.669 70.5194 136.019C88.1289 143.589 103.156 164.971 103.156 172.541C103.156 180.111 120.374 182.608 120.374 182.608L106.834 182.218Z" fill="url(#paint0_linear_4_16)"/>
<path d="M105.112 175.272C105.112 175.272 117.4 129.542 75.137 104.804C32.8741 80.0665 18.0821 80.3787 9.7078 77.4132C4.93366 75.6964 18.0821 81.6273 23.5606 88.9628C29.0391 96.2983 27.7086 94.6595 37.6482 100.122C49.1531 106.443 53.9273 112.608 60.658 113.857C70.4411 115.73 67.5453 125.875 84.5287 133.522C99.8686 140.468 101.825 159.041 101.825 166.064C101.825 173.087 116.852 175.428 116.852 175.428L105.112 175.272Z" fill="url(#paint1_linear_4_16)"/>
<path d="M147.688 168.561L152.462 164.035C154.732 161.928 157.55 160.367 160.602 159.587C175.55 155.685 222.509 141.014 241.997 105.585C242.154 105.273 241.997 104.882 241.684 104.726H241.606C241.527 104.726 241.449 104.648 241.371 104.648C234.875 104.18 201.456 103.634 156.767 141.638C155.984 142.262 155.202 143.043 154.575 143.823C153.48 145.384 151.601 148.037 150.741 149.442C149.567 151.471 151.914 154.905 148.784 157.948C145.653 160.991 138.923 168.561 138.923 168.561L144.401 172.619L147.688 168.561Z" fill="url(#paint2_linear_4_16)"/>
<path d="M122.252 165.596C122.252 165.596 135.088 51.1926 100.103 15.2173C67.8584 -17.8706 67.3888 12.564 67.4671 17.7145C67.4671 18.1827 67.6236 18.5729 67.7801 18.9631C75.3718 33.0879 78.0328 49.3977 75.2935 65.1613C72.0064 81.7053 95.7206 79.5202 97.7554 95.8301C99.7903 112.14 108.086 137.268 107.225 148.818C106.365 160.367 106.286 171.605 106.286 171.605L119.2 171.995L122.252 165.596Z" fill="url(#paint3_linear_4_16)"/>
<path d="M122.096 165.986C122.174 165.752 122.252 165.44 122.33 165.205C123.113 157.714 133.914 49.944 100.103 15.2173C68.0931 -17.7145 67.6236 12.0958 67.7801 17.4804C67.8584 18.1047 68.1714 18.729 68.4845 19.2753C70.8324 22.7089 81.3981 37.6921 90.7899 35.9753C116.695 31.3711 93.8422 62.43 107.93 79.052C119.2 92.1623 115.443 137.424 114.582 149.052C114.034 155.607 112.939 162.006 111.295 168.405C110.982 170.044 112.078 171.605 113.643 171.917C113.721 171.917 113.8 171.917 113.878 171.917C114.113 171.917 114.269 171.995 114.504 171.995H116.852C118.261 172.073 119.513 171.37 120.139 170.122L122.096 165.986Z" fill="url(#paint4_linear_4_16)"/>
<path d="M134.696 172.619C134.696 172.619 136.966 140.936 155.515 121.582C160.68 116.276 167.254 112.608 174.455 110.969C180.011 109.721 189.09 105.273 196.995 90.4455C196.995 90.4455 211.943 69.3753 226.892 62.9763C241.84 56.5772 226.892 55.7968 226.892 55.7968C226.892 55.7968 184.16 63.9127 156.767 88.8847C155.045 90.4455 153.245 91.9282 151.288 93.1768C144.166 98.0151 124.522 116.276 125.383 169.576L134.696 172.619Z" fill="url(#paint5_linear_4_16)"/>
<path d="M171.794 170.044C171.794 170.044 172.42 166.22 167.333 166.298C162.872 166.454 87.4245 165.908 87.4245 165.908C87.4245 165.908 83.9026 165.908 84.1374 168.561C84.3722 171.214 95.7988 233.879 96.8945 235.205C97.3641 235.986 98.1468 236.61 99.0859 236.844C100.495 237.234 153.48 236.922 153.48 236.922C154.732 236.766 155.671 235.751 155.749 234.503C155.671 234.581 171.95 170.824 171.794 170.044Z" fill="url(#paint6_linear_4_16)"/>
</g>
<defs>
<linearGradient id="paint0_linear_4_16" x1="0.0135711" y1="129.277" x2="120.358" y2="129.277" gradientUnits="userSpaceOnUse">
<stop stop-color="#93FD93"/>
<stop offset="0.51" stop-color="#21C2C1"/>
<stop offset="1" stop-color="#84F599"/>
</linearGradient>
<linearGradient id="paint1_linear_4_16" x1="45.1032" y1="91.4566" x2="113.252" y2="175.252" gradientUnits="userSpaceOnUse">
<stop stop-color="#93FD93"/>
<stop offset="0.51" stop-color="#21C2C1"/>
<stop offset="1" stop-color="#84F599"/>
</linearGradient>
<linearGradient id="paint2_linear_4_16" x1="123.884" y1="186.015" x2="217.698" y2="113.215" gradientUnits="userSpaceOnUse">
<stop stop-color="#93FD93"/>
<stop offset="0.51" stop-color="#21C2C1"/>
<stop offset="1" stop-color="#84F599"/>
</linearGradient>
<linearGradient id="paint3_linear_4_16" x1="147.511" y1="149.134" x2="67.0464" y2="46.9736" gradientUnits="userSpaceOnUse">
<stop stop-color="#93FD93"/>
<stop offset="0.51" stop-color="#21C2C1"/>
<stop offset="1" stop-color="#84F599"/>
</linearGradient>
<linearGradient id="paint4_linear_4_16" x1="67.7707" y1="85.9746" x2="124.59" y2="85.9746" gradientUnits="userSpaceOnUse">
<stop stop-color="#93FD93"/>
<stop offset="0.51" stop-color="#21C2C1"/>
<stop offset="1" stop-color="#84F599"/>
</linearGradient>
<linearGradient id="paint5_linear_4_16" x1="119.683" y1="178.517" x2="180.988" y2="89.5987" gradientUnits="userSpaceOnUse">
<stop stop-color="#93FD93"/>
<stop offset="0.51" stop-color="#21C2C1"/>
<stop offset="1" stop-color="#84F599"/>
</linearGradient>
<linearGradient id="paint6_linear_4_16" x1="84.2298" y1="201.469" x2="171.858" y2="201.469" gradientUnits="userSpaceOnUse">
<stop stop-color="#E5A4ED"/>
<stop offset="1" stop-color="#7A5BF5"/>
</linearGradient>
<clipPath id="clip0_4_16">
<rect width="242" height="237" fill="white"/>
</clipPath>
</defs>
</svg>
